# xmcd
# 
# Track frame offsets:
#	150
#	18163
#	35858
#	53870
# 
# Disc length: 952 seconds
# 
# Revision: 0
# Processed by: cddbd v1.5PL3 Copyright (c) Steve Scherf et al.
# Submitted via: CD Titler Ver.2.00beta9
# 
DISCID=2d03b604
DTITLE=清水　愛 - Angel Fish
DYEAR=2003
DGENRE=J-pop
TTITLE0=Angel Fish
TTITLE1=時をかける少女
TTITLE2=Angel Fish(Instrumental)
TTITLE3=時をかける少女(Instrumental)
EXTD=
EXTT0=
EXTT1=
EXTT2=
EXTT3=
PLAYORDER=
